<svg version="1.1" xmlns="http://www.w3.org/2000/svg" xmlns:xlink="http://www.w3.org/1999/xlink" width="48" height="48"><defs><linearGradient x1="11.97446" y1="13.00303" x2="79.59473" y2="80.62331" gradientUnits="userSpaceOnUse" id="color-1"><stop offset="0" stop-color="#000000" stop-opacity="0.89"></stop><stop offset="1" stop-color="#000000" stop-opacity="0"></stop></linearGradient><filter id="dropshadow-base"><feColorMatrix type="matrix" values="0 0 0 0 0  0 0 0 0 0  0 0 0 0 0  0 0 0 .8 0"></feColorMatrix> <feOffset dx="0" dy="1"></feOffset> <feGaussianBlur stdDeviation="1"></feGaussianBlur> <feComposite in="SourceGraphic"></feComposite></filter><filter id="dropshadow-banner" x="-10%" y="-10%" width="120%" height="130%"><feColorMatrix type="matrix" values="0 0 0 0 0  0 0 0 0 0  0 0 0 0 0  0 0 0 .4 0"></feColorMatrix> <feOffset dx="0" dy="1"></feOffset> <feGaussianBlur stdDeviation="0.5"></feGaussianBlur> <feComposite in="SourceGraphic"></feComposite></filter></defs><g fill="none" fill-rule="nonzero" stroke="none" stroke-width="none" stroke-linecap="butt" stroke-linejoin="miter" stroke-miterlimit="10" stroke-dasharray="" stroke-dashoffset="0" font-family="none" font-weight="none" font-size="none" text-anchor="none" style="mix-blend-mode: normal"><path d="M7,43c-1.10457,0 -2,-0.89543 -2,-2v-34c0,-1.10457 0.89543,-2 2,-2h34c1.10457,0 2,0.89543 2,2v34c0,1.10457 -0.89543,2 -2,2z" id="base 1 5 1 1 1 1" fill="#512da8" stroke-width="1"></path><path d="M11.97446,13.00303l4.7917,0.03351c2.19664,0.02816 3.75422,0.10366 3.85717,0.20661l1.15823,1.15823c0.41965,-0.00863 0.82913,0.03795 1.21717,0.14304c0.83771,0.23456 1.57489,0.23456 2.07752,0.03351l0.13813,-0.05755l-1.04603,-1.04603c-0.29134,-0.29134 0.18291,-0.47131 1.37702,-0.47131c0.75543,0 1.37461,0.08175 1.48896,0.1961l0.68909,0.68909v-0.88518h5.69643l9.58017,9.58017v18.4168c0,1.10457 -0.89543,2 -2,2l-20.47394,0l-8.5516,-8.5516z" fill="url(#color-1)" stroke-width="1"></path><path d="M11.97446,23.72571v10.72268h10.72268h10.72268v-10.72268v-10.72268h-2.84821h-2.84821v0.97174c0,1.70893 1.03876,3.45136 2.47962,4.28907c0.26807,0.13403 0.56964,0.8042 0.70368,1.47437c0.20105,1.07227 0.13403,1.23981 -0.50263,1.40735c-0.4021,0.10053 -0.63666,0.33508 -0.50263,0.53613c0.10053,0.20105 0.06702,0.36859 -0.13403,0.36859c-0.16754,0 -0.4021,0.60315 -0.53613,1.34034c-0.33508,1.97699 -0.83771,1.64191 -0.83771,-0.53613c0,-1.64191 -0.06702,-1.84296 -0.50263,-1.47437c-0.30158,0.26807 -0.50263,0.26807 -0.50263,0.06702c0,-0.20105 0.4021,-0.67017 0.90473,-1.07227c0.73718,-0.56964 0.83771,-0.77069 0.43561,-1.00525c-0.26807,-0.20105 -0.60315,-0.33508 -0.70368,-0.33508c-0.10053,0 -0.60315,-0.63666 -1.10578,-1.40735c-0.90473,-1.37384 -0.90473,-1.44086 -0.4021,-2.7812c0.30158,-0.73718 0.53613,-1.47437 0.53613,-1.6084c0,-0.13403 -0.67017,-0.23456 -1.50788,-0.23456c-1.70893,0 -1.94349,0.36859 -0.56964,0.90473l0.90473,0.33508l-0.8042,0.33508c-0.50263,0.20105 -1.23981,0.20105 -2.07752,-0.03351c-1.6084,-0.43561 -3.5854,0.13403 -5.12678,1.47437c-0.60315,0.56964 -1.2063,1.00525 -1.34034,1.00525c-0.10053,0 -0.20105,-0.46912 -0.20105,-1.00525c0,-0.56964 0.10053,-0.97174 0.26807,-0.93823c0.13403,0.06702 0.83771,-0.26807 1.57489,-0.73718c0.73718,-0.46912 1.80945,-0.93823 2.34559,-1.03876c0.56964,-0.13403 -1.13929,-0.23456 -3.75294,-0.26807l-4.7917,-0.03351zM23.3338,18.53191c1.94349,0.97174 1.84296,2.21155 -0.50263,6.09853c-1.80945,2.94874 -2.51313,3.85346 -1.97699,2.51313c0.36859,-0.97174 1.13929,-5.22731 0.93823,-5.42836c-0.06702,-0.10053 -0.33508,0.06702 -0.53613,0.33508c-0.23456,0.26807 -0.70368,0.73718 -1.07227,1.00525c-0.53613,0.36859 -0.56964,0.36859 -0.23456,0c0.8042,-0.93823 0.36859,-1.10578 -0.53613,-0.23456c-0.93823,0.90473 -2.34559,1.37384 -1.47437,0.50263c0.70368,-0.70368 0.43561,-0.97174 -0.77069,-0.73718c-0.93823,0.16754 -1.17279,0.10053 -1.17279,-0.33508c0,-0.30158 0.13403,-0.53613 0.30158,-0.53613c0.16754,0 0.26807,-0.26807 0.20105,-0.60315c-0.06702,-0.30158 -0.13403,-0.70368 -0.13403,-0.83771c-0.03351,-0.16754 -0.13403,-0.20105 -0.26807,-0.13403c-0.16754,0.10053 -0.53613,-0.20105 -0.87122,-0.63666c-0.90473,-1.2063 -0.20105,-0.97174 1.10578,0.36859c1.27332,1.30683 2.74769,1.6084 2.44611,0.50263c-0.10053,-0.36859 0,-0.90473 0.23456,-1.17279c0.36859,-0.46912 0.50263,-0.46912 1.03876,0.03351c0.56964,0.53613 0.63666,0.50263 0.93823,-0.33508c0.4021,-1.00525 0.97174,-1.07227 2.34559,-0.36859z" fill="none" stroke-width="0"></path><path d="M11.97446,13.00303l4.7917,0.03351c2.61365,0.03351 4.32258,0.13403 3.75294,0.26807c-0.53613,0.10053 -1.6084,0.56964 -2.34559,1.03876c-0.73718,0.46912 -1.44086,0.8042 -1.57489,0.73718c-0.16754,-0.03351 -0.26807,0.36859 -0.26807,0.93823c0,0.53613 0.10053,1.00525 0.20105,1.00525c0.13403,0 0.73718,-0.43561 1.34034,-1.00525c1.54139,-1.34034 3.51838,-1.90998 5.12678,-1.47437c0.83771,0.23456 1.57489,0.23456 2.07752,0.03351l0.8042,-0.33508l-0.90473,-0.33508c-1.37384,-0.53613 -1.13929,-0.90473 0.56964,-0.90473c0.83771,0 1.50788,0.10053 1.50788,0.23456c0,0.13403 -0.23456,0.87122 -0.53613,1.6084c-0.50263,1.34034 -0.50263,1.40735 0.4021,2.7812c0.50263,0.77069 1.00525,1.40735 1.10578,1.40735c0.10053,0 0.43561,0.13403 0.70368,0.33508c0.4021,0.23456 0.30158,0.43561 -0.43561,1.00525c-0.50263,0.4021 -0.90473,0.87122 -0.90473,1.07227c0,0.20105 0.20105,0.20105 0.50263,-0.06702c0.43561,-0.36859 0.50263,-0.16754 0.50263,1.47437c0,2.17805 0.50263,2.51313 0.83771,0.53613c0.13403,-0.73718 0.36859,-1.34034 0.53613,-1.34034c0.20105,0 0.23456,-0.16754 0.13403,-0.36859c-0.13403,-0.20105 0.10053,-0.43561 0.50263,-0.53613c0.63666,-0.16754 0.70368,-0.33508 0.50263,-1.40735c-0.13403,-0.67017 -0.43561,-1.34034 -0.70368,-1.47437c-1.44086,-0.83771 -2.47962,-2.58015 -2.47962,-4.28907v-0.97174h5.69643v21.44537h-21.44537zM20.98822,18.90051c-0.30158,0.83771 -0.36859,0.87122 -0.93823,0.33508c-0.53613,-0.50263 -0.67017,-0.50263 -1.03876,-0.03351c-0.23456,0.26807 -0.33508,0.8042 -0.23456,1.17279c0.30158,1.10578 -1.17279,0.8042 -2.44611,-0.50263c-1.30683,-1.34034 -2.0105,-1.57489 -1.10578,-0.36859c0.33508,0.43561 0.70368,0.73718 0.87122,0.63666c0.13403,-0.06702 0.23456,-0.03351 0.26807,0.13403c0,0.13403 0.06702,0.53613 0.13403,0.83771c0.06702,0.33508 -0.03351,0.60315 -0.20105,0.60315c-0.16754,0 -0.30158,0.23456 -0.30158,0.53613c0,0.43561 0.23456,0.50263 1.17279,0.33508c1.2063,-0.23456 1.47437,0.03351 0.77069,0.73718c-0.87122,0.87122 0.53613,0.4021 1.47437,-0.50263c0.90473,-0.87122 1.34034,-0.70368 0.53613,0.23456c-0.33508,0.36859 -0.30158,0.36859 0.23456,0c0.36859,-0.26807 0.83771,-0.73718 1.07227,-1.00525c0.20105,-0.26807 0.46912,-0.43561 0.53613,-0.33508c0.20105,0.20105 -0.56964,4.45662 -0.93823,5.42836c-0.53613,1.34034 0.16754,0.43561 1.97699,-2.51313c2.34559,-3.88697 2.44611,-5.12678 0.50263,-6.09853c-1.37384,-0.70368 -1.94349,-0.63666 -2.34559,0.36859z" fill="#ffffff" stroke-width="0"></path><path d="M2,24c0,-12.15026 9.84974,-22 22,-22c12.15026,0 22,9.84974 22,22c0,12.15026 -9.84974,22 -22,22c-12.15026,0 -22,-9.84974 -22,-22z" id="base 1 1 1" fill="none" stroke-width="1"></path><g fill="#000000" stroke-width="1" font-family="Roboto, sans-serif" font-weight="400" font-size="14" text-anchor="start"><g></g></g><rect x="2" y="2" width="44" height="22" fill="none" stroke-width="1"></rect><path d="M2,24v-22h44v22z" fill="none" stroke-width="1"></path><path d="M2,24v-22h44v22z" fill="none" stroke-width="1"></path><path d="M2,24v-22h44v22z" fill="none" stroke-width="1"></path><path d="M2,24v-22h44v22z" fill="none" stroke-width="1"></path></g></svg>